<?xml version="1.0" encoding="utf-8"?>
<!-- Generator: Adobe Illustrator 18.1.1, SVG Export Plug-In . SVG Version: 6.00 Build 0)  -->
<!DOCTYPE svg PUBLIC "-//W3C//DTD SVG 1.1//EN" "http://www.w3.org/Graphics/SVG/1.1/DTD/svg11.dtd">
<svg version="1.1" id="Layer_1" xmlns="http://www.w3.org/2000/svg" xmlns:xlink="http://www.w3.org/1999/xlink" x="0px" y="0px"
	 viewBox="0 0 118 86" enable-background="new 0 0 118 86" xml:space="preserve">
<g>
	<path fill="#FFFFFF" d="M50.8,45.6l6.8-16.4h2.3l6.9,16.4h-3.6l-1.3-3.3h-6.3l-1.4,3.3H50.8z M56.5,39.5h4.2l-2.1-5.4L56.5,39.5z"
		/>
	<path fill="#FFFFFF" d="M67.2,40.6v-2.9h6.3v2.9H67.2z"/>
	<path fill="#FFFFFF" d="M75.3,45.6v-2.7l8.4-10.7H76v-3h11.8V32l-8.3,10.6h8.5v3H75.3z"/>
</g>
<g>
	<path fill="#FFFFFF" d="M52.9,55.4c-0.4-0.2-0.7-0.4-0.9-0.7c-0.2-0.3-0.4-0.7-0.5-1c-0.1-0.4-0.2-0.8-0.2-1.2
		c0-0.4,0.1-0.8,0.2-1.2c0.1-0.4,0.3-0.7,0.5-1c0.2-0.3,0.5-0.6,0.9-0.7c0.4-0.2,0.8-0.3,1.3-0.3c0.5,0,0.9,0.1,1.3,0.3
		c0.4,0.2,0.7,0.4,0.9,0.7s0.4,0.7,0.5,1C57,51.6,57,52,57,52.4c0,0.4-0.1,0.8-0.2,1.2c-0.1,0.4-0.3,0.7-0.5,1
		c-0.2,0.3-0.5,0.6-0.9,0.7c-0.4,0.2-0.8,0.3-1.3,0.3C53.6,55.6,53.2,55.5,52.9,55.4z M52.9,53.9c0.1,0.2,0.3,0.4,0.5,0.5
		c0.2,0.1,0.4,0.2,0.7,0.2c0.3,0,0.5-0.1,0.7-0.2c0.2-0.1,0.4-0.3,0.5-0.5c0.1-0.2,0.2-0.4,0.3-0.7s0.1-0.5,0.1-0.8s0-0.5-0.1-0.8
		s-0.2-0.5-0.3-0.7c-0.1-0.2-0.3-0.4-0.5-0.5c-0.2-0.1-0.4-0.2-0.7-0.2c-0.3,0-0.5,0.1-0.7,0.2c-0.2,0.1-0.4,0.3-0.5,0.5
		c-0.1,0.2-0.2,0.4-0.3,0.7c-0.1,0.3-0.1,0.5-0.1,0.8s0,0.5,0.1,0.8C52.7,53.4,52.8,53.7,52.9,53.9z"/>
	<path fill="#FFFFFF" d="M58,55.5v-6.2h4.2v1.1h-3v1.5h2.4V53h-2.4v2.5H58z"/>
	<path fill="#FFFFFF" d="M65.2,55.5v-6.2h1.3l1.8,4.2l1.7-4.2h1.3v6.2h-1.2V52l-1.5,3.5h-0.4L66.5,52v3.5H65.2z"/>
	<path fill="#FFFFFF" d="M72.1,55.5l2.6-6.2h0.9l2.6,6.2h-1.4l-0.5-1.3h-2.4l-0.5,1.3H72.1z M74.2,53.2h1.6l-0.8-2L74.2,53.2z"/>
	<path fill="#FFFFFF" d="M78.8,55.5v-6.2h2.5c0.3,0,0.5,0,0.8,0.1s0.5,0.2,0.7,0.3c0.2,0.1,0.4,0.3,0.5,0.6c0.1,0.2,0.2,0.5,0.2,0.9
		c0,0.2,0,0.4-0.1,0.6c-0.1,0.2-0.1,0.4-0.3,0.6c-0.1,0.2-0.3,0.3-0.4,0.5c-0.2,0.1-0.4,0.2-0.7,0.3l1.6,2.4h-1.4l-1.5-2.3h-0.7v2.3
		H78.8z M80.1,52.1h1c0.5,0,0.8-0.1,1-0.2s0.3-0.4,0.3-0.6c0-0.3-0.1-0.5-0.3-0.7s-0.5-0.2-1-0.2h-1V52.1z"/>
	<path fill="#FFFFFF" d="M87.1,53.3v-1.1h2.2v3c-0.3,0.1-0.6,0.2-0.9,0.3s-0.8,0.1-1.4,0.1c-0.4,0-0.8-0.1-1.1-0.2
		c-0.3-0.1-0.6-0.4-0.9-0.6c-0.2-0.3-0.4-0.6-0.6-1c-0.1-0.4-0.2-0.9-0.2-1.4c0-0.6,0.1-1,0.2-1.5c0.1-0.4,0.4-0.7,0.6-1
		c0.3-0.3,0.5-0.5,0.9-0.6c0.3-0.1,0.7-0.2,1-0.2c0.6,0,1,0.1,1.4,0.3s0.6,0.6,0.9,1l-1,0.6c-0.1-0.3-0.3-0.5-0.5-0.6
		s-0.4-0.2-0.7-0.2c-0.2,0-0.4,0-0.6,0.1c-0.2,0.1-0.3,0.2-0.5,0.4c-0.1,0.2-0.3,0.4-0.3,0.7s-0.1,0.6-0.1,1c0,0.3,0,0.6,0.1,0.9
		c0.1,0.3,0.2,0.5,0.4,0.7c0.1,0.2,0.3,0.3,0.5,0.4c0.2,0.1,0.4,0.1,0.6,0.1c0.2,0,0.4,0,0.5,0c0.2,0,0.3,0,0.4-0.1v-1.1H87.1z"/>
	<path fill="#FFFFFF" d="M89.9,55.5l2.6-6.2h0.9l2.6,6.2h-1.4l-0.5-1.3h-2.4l-0.5,1.3H89.9z M92,53.2h1.6l-0.8-2L92,53.2z"/>
	<path fill="#FFFFFF" d="M97.3,55.5v-5.1h-1.9v-1.1h5v1.1h-1.9v5.1H97.3z"/>
	<path fill="#FFFFFF" d="M101.2,55.5v-6.2h4.3v1.1h-3v1.4h2.5v1.1h-2.5v1.4h3.2v1.1H101.2z"/>
</g>
<path fill="#FFFFFF" d="M43.7,24.1L43.7,24.1c0-1.8-1.3-3.1-2.9-2.9L18,24h-0.6v35.3h25.9c1.7,0,3-1.3,3-3V27
	C46.2,25.5,45.1,24.3,43.7,24.1z M41.1,23.2c0.4,0,0.6,0.3,0.6,0.8l0,29.3c0,0.6-0.4,1.2-0.9,1.3l-17.6,2.2V25.4L41.1,23.2z
	 M19.4,25.9l1.8-0.2V57l-1.7,0.2L19.4,25.9z M44.2,56.4c0,0.6-0.4,1-1,1h-8.6l6.4-0.8c1.5-0.2,2.7-1.6,2.7-3.2l0-27.1
	c0.3,0.2,0.5,0.5,0.5,0.9V56.4z"/>
</svg>
